<svg id="Layer_1" data-name="Layer 1" xmlns="http://www.w3.org/2000/svg" 
viewBox="0 0 69.95 71.03"><defs>
<style>.cls-1{fill:#9c9b9d;}.cls-2{fill:#fcfdfd;}.cls-3{fill:#183959;}.cls-4{fill:#3267b0;}.cls-5{fill:#57c8df;}.cls-6{fill:#379dd7;}.cls-7{fill:#faf8fa;}</style>
</defs>
<path class="cls-1" d="M75,49c0,20.36-15.48,26.56-35.13,26.56S5,67.47,5,47.1s15.16-41,34.81-41S75,28.59,75,49Z" transform="translate(-5.03 -4.48)"/>
<path class="cls-2" d="M74.61,47.25c0,20.34-15.32,26.52-34.77,26.52S5.39,65.74,5.39,45.4s15-40.92,34.45-40.92S74.61,26.92,74.61,47.25Z" transform="translate(-5.03 -4.48)"/>
<path class="cls-3" d="M72.16,46.67c0,18.9-14.23,24.65-32.31,24.65s-32-7.47-32-26.37,13.94-38,32-38S72.16,27.78,72.16,46.67Z" transform="translate(-5.03 -4.48)"/>
<path class="cls-4" d="M69.51,45.5c0,18.06-12.38,24-29.66,24s-29.65-6-29.65-24S22.61,7.64,39.85,8.81C56.08,9.9,69.51,27.44,69.51,45.5Z" transform="translate(-5.03 -4.48)"/>
<path class="cls-5" d="M41.62,45.11c10.82,0,20.54-2.48,27.26-6.42C66.06,23.26,54,9.76,39.85,8.81c-14.4-1-25.43,12.68-28.68,27.73C17.78,41.71,29,45.11,41.62,45.11Z" transform="translate(-5.03 -4.48)"/>
<path class="cls-6" d="M69.65,43.7c0,12.85-13.23,20.21-30.54,20.21S10.2,56.55,10.2,43.7,22.64,16.76,39.92,17.59C56.19,18.37,69.65,30.85,69.65,43.7Z" transform="translate(-5.03 -4.48)"/>
<path class="cls-7" d="M32.59,17.19c-.86-2.29-4.15-3-7.33-1.69S20.18,19.81,21,22.09s3.43,1.13,6.62-.23S33.45,19.47,32.59,17.19Z" transform="translate(-5.03 -4.48)"/>
<path class="cls-7" d="M18.16,28.07a2,2,0,0,0,2.81-.5,2.24,2.24,0,0,0,0-3,1.73,1.73,0,0,0-2.65.27C17.5,25.79,17.37,27.37,18.16,28.07Z" transform="translate(-5.03 -4.48)"/>
<path class="cls-7" d="M47.63,62.76c.07,3.08,5.15,3.88,9.16,2.24s6.43-5.3,5.39-8.18-3.78,2.88-7.8,4.52S47.57,60.3,47.63,62.76Z" transform="translate(-5.03 -4.48)"/></svg>